# xmcd CD database file
#
# Track frame offsets:
#	150
#	19895
#	34170
#
# Disc length: 761 seconds
#
# Revision: 0
# Processed by: cddbd v1.5.1PL0 Copyright (c) Steve Scherf et al.
# Submitted via: CDex 1.51
#
DISCID=1d02f703
DTITLE=SOULSBERRY - Lovers
DYEAR=2000
DGENRE=Rock
TTITLE0=Lovers
TTITLE1=One cycle
TTITLE2=spirit song
EXTD=YEAR: 2000
EXTT0=
EXTT1=
EXTT2=
PLAYORDER=
